<svg width="24" height="20" viewBox="0 0 24 20" fill="none" xmlns="http://www.w3.org/2000/svg">
<path d="M12.0119 0.0685467C15.0052 0.0685467 17.9992 0.110171 20.9911 0.0533374C22.8062 0.0189167 24.0175 1.46218 23.9998 3.3249C23.9593 7.485 23.988 11.6459 23.9866 15.8068C23.9866 17.8232 22.8585 19.0527 21.0109 19.0527C15.0001 19.0527 8.98918 19.0527 2.9783 19.0527C1.13299 19.0527 0.0019429 17.82 0.00120655 15.8076C0.000470189 11.5939 -0.00173969 7.37933 0.00267845 3.1656C0.00415116 1.63508 0.846544 0.447974 2.15505 0.138188C2.4275 0.0741497 2.71542 0.0717469 2.99597 0.0717469C6.00104 0.066944 9.00685 0.0693455 12.0119 0.0693455V0.0685467ZM8.49508 8.96028C7.53635 10.0009 6.60854 11.0079 5.68073 12.0149C4.58724 13.2028 3.49154 14.3891 2.40173 15.5819C2.13517 15.8732 2.12412 16.223 2.34724 16.4672C2.57993 16.7217 2.87373 16.7073 3.16312 16.4248C3.21761 16.3711 3.26842 16.3127 3.3207 16.2567C5.22934 14.181 7.13798 12.1054 9.04809 10.0305C9.14013 9.93046 9.23954 9.83681 9.34852 9.72634C9.61803 9.96648 9.86397 10.1842 10.1092 10.4035C11.3242 11.493 12.6643 11.4914 13.8867 10.3987C14.1385 10.1738 14.3918 9.94967 14.6849 9.68952C14.7909 9.8296 14.8616 9.94087 14.9478 10.0345C16.8557 12.1118 18.7643 14.1866 20.6744 16.2615C20.7694 16.3647 20.8629 16.4768 20.9756 16.5528C21.2149 16.7145 21.452 16.6761 21.6442 16.4576C21.8371 16.2382 21.8519 15.9781 21.6987 15.7259C21.6251 15.6051 21.522 15.505 21.4262 15.4017C19.5522 13.3637 17.6767 11.3273 15.802 9.28928C15.7077 9.18681 15.6186 9.07955 15.5133 8.95868C15.6208 8.85782 15.7092 8.76977 15.802 8.68732C17.6701 7.01992 19.539 5.35332 21.4071 3.68591C21.4925 3.60987 21.5838 3.53783 21.6538 3.44737C21.843 3.20083 21.8578 2.92946 21.6685 2.68211C21.4785 2.43397 21.2267 2.40355 20.9734 2.56124C20.8364 2.64689 20.7186 2.76856 20.5956 2.87823C18.1104 5.09476 15.6267 7.31369 13.14 9.52782C12.3749 10.209 11.6025 10.201 10.8389 9.51902C10.403 9.12918 9.96706 8.73935 9.5304 8.35032C7.42442 6.47239 5.31844 4.59446 3.21099 2.71894C2.85312 2.40034 2.52397 2.39394 2.30821 2.68852C2.09393 2.98069 2.17125 3.31609 2.5328 3.64109C2.91129 3.98129 3.29125 4.3191 3.67047 4.6569C5.26395 6.07775 6.85669 7.4986 8.49435 8.95868L8.49508 8.96028Z" fill="white"/>
</svg>
