<svg width="25" height="20" viewBox="0 0 25 20" fill="none" xmlns="http://www.w3.org/2000/svg">
<path d="M12.5119 0.515812C15.5052 0.515812 18.4992 0.557437 21.4911 0.500603C23.3062 0.466182 24.5175 1.90945 24.4998 3.77217C24.4593 7.93226 24.488 12.0932 24.4866 16.2541C24.4866 18.2705 23.3585 19.5 21.5109 19.5C15.5001 19.5 9.48918 19.5 3.4783 19.5C1.63299 19.5 0.501943 18.2673 0.501207 16.2549C0.50047 12.0411 0.49826 7.8266 0.502678 3.61287C0.504151 2.08235 1.34654 0.89524 2.65505 0.585454C2.9275 0.521415 3.21542 0.519013 3.49597 0.519013C6.50104 0.51421 9.50685 0.516611 12.5119 0.516611V0.515812ZM8.99508 9.40755C8.03635 10.4482 7.10854 11.4552 6.18073 12.4622C5.08724 13.6501 3.99154 14.8364 2.90173 16.0291C2.63517 16.3205 2.62412 16.6703 2.84724 16.9145C3.07993 17.169 3.37373 17.1546 3.66312 16.872C3.71761 16.8184 3.76842 16.76 3.8207 16.7039C5.72934 14.6283 7.63798 12.5526 9.54809 10.4778C9.64013 10.3777 9.73954 10.2841 9.84852 10.1736C10.118 10.4138 10.364 10.6315 10.6092 10.8508C11.8242 11.9403 13.1643 11.9387 14.3867 10.846C14.6385 10.6211 14.8918 10.3969 15.1849 10.1368C15.2909 10.2769 15.3616 10.3881 15.4478 10.4818C17.3557 12.559 19.2643 14.6339 21.1744 16.7087C21.2694 16.812 21.3629 16.9241 21.4756 17.0001C21.7149 17.1618 21.952 17.1234 22.1442 16.9048C22.3371 16.6855 22.3519 16.4254 22.1987 16.1732C22.1251 16.0523 22.022 15.9523 21.9262 15.849C20.0522 13.811 18.1767 11.7746 16.302 9.73654C16.2077 9.63408 16.1186 9.52682 16.0133 9.40595C16.1208 9.30509 16.2092 9.21703 16.302 9.13458C18.1701 7.46718 20.039 5.80058 21.9071 4.13318C21.9925 4.05713 22.0838 3.98509 22.1538 3.89464C22.343 3.64809 22.3577 3.37673 22.1685 3.12938C21.9785 2.88123 21.7267 2.85081 21.4734 3.00851C21.3364 3.09416 21.2186 3.21583 21.0956 3.3255C18.6104 5.54203 16.1267 7.76096 13.64 9.97509C12.8749 10.6563 12.1025 10.6483 11.3389 9.96628C10.903 9.57645 10.4671 9.18661 10.0304 8.79758C7.92442 6.91965 5.81844 5.04173 3.71099 3.1662C3.35312 2.84761 3.02397 2.84121 2.80821 3.13578C2.59393 3.42796 2.67125 3.76336 3.0328 4.08835C3.41129 4.42856 3.79125 4.76636 4.17047 5.10416C5.76395 6.52502 7.35669 7.94587 8.99435 9.40595L8.99508 9.40755Z" fill="black"/>
</svg>
