<svg width="25" height="24" viewBox="0 0 25 24" fill="none" xmlns="http://www.w3.org/2000/svg">
<g clip-path="url(#clip0_81_28)">
<path d="M12.5 24C19.1274 24 24.5 18.6274 24.5 12C24.5 5.37258 19.1274 0 12.5 0C5.87258 0 0.5 5.37258 0.5 12C0.5 18.6274 5.87258 24 12.5 24Z" fill="black"/>
<path d="M13.6199 19.12V12.64H15.7799L16.0999 10.08H13.6199V8.48001C13.6199 7.76001 13.8599 7.28001 14.8999 7.28001H16.2599V4.96C16.0199 4.96 15.2199 4.88 14.3399 4.88C12.4199 4.88 11.0599 6.08001 11.0599 8.24001V10.08H8.8999V12.64H11.0599V19.12H13.6199Z" fill="white"/>
</g>
<defs>
<clipPath id="clip0_81_28">
<rect width="24" height="24" fill="white" transform="translate(0.5)"/>
</clipPath>
</defs>
</svg>
