<svg width="24" height="25" viewBox="0 0 24 25" fill="none" xmlns="http://www.w3.org/2000/svg">
<g clip-path="url(#clip0_196_18)">
<path d="M12 24.5527C18.6274 24.5527 24 19.1802 24 12.5527C24 5.92532 18.6274 0.552734 12 0.552734C5.37258 0.552734 0 5.92532 0 12.5527C0 19.1802 5.37258 24.5527 12 24.5527Z" fill="white"/>
<path d="M13.1199 19.6727V13.1927H15.2799L15.5999 10.6327H13.1199V9.03274C13.1199 8.31274 13.3599 7.83274 14.3999 7.83274H15.7599V5.51274C15.5199 5.51274 14.7199 5.43274 13.8399 5.43274C11.9199 5.43274 10.5599 6.63274 10.5599 8.79274V10.6327H8.3999V13.1927H10.5599V19.6727H13.1199Z" fill="black"/>
</g>
<defs>
<clipPath id="clip0_196_18">
<rect width="24" height="24" fill="white" transform="translate(0 0.552734)"/>
</clipPath>
</defs>
</svg>
