<svg width="24" height="25" viewBox="0 0 24 25" fill="none" xmlns="http://www.w3.org/2000/svg">
<path d="M7.05121 24.48C6.0566 24.4638 5.07008 24.2697 4.14016 23.922C3.33962 23.6228 2.61186 23.1457 2.01348 22.5393C1.39892 21.9409 0.929919 21.2131 0.630728 20.4126C0.283019 19.4827 0.0970358 18.4961 0.072777 17.5015C0.0161733 16.2239 0 15.8115 0 12.5527C0 9.29397 0.0161733 8.88158 0.072777 7.60395C0.0889495 6.60934 0.283019 5.62282 0.630728 4.6929C0.929919 3.89236 1.40701 3.16459 2.01348 2.56621C2.61186 1.95974 3.33962 1.48265 4.14016 1.18346C5.07008 0.835754 6.0566 0.641683 7.05121 0.625511C8.32884 0.568907 8.74124 0.552734 12 0.552734C15.2588 0.552734 15.6712 0.568907 16.9488 0.625511C17.9434 0.641683 18.9299 0.835754 19.8598 1.18346C20.6604 1.48265 21.3881 1.95974 21.9865 2.56621C22.6011 3.16459 23.0701 3.89236 23.3693 4.6929C23.717 5.62282 23.9111 6.60934 23.9272 7.60395C23.9838 8.88158 24 9.29397 24 12.5527C24 15.8115 23.9838 16.2239 23.9272 17.5015C23.903 18.4961 23.717 19.4827 23.3693 20.4126C23.0701 21.2131 22.593 21.9409 21.9865 22.5393C21.3881 23.1538 20.6604 23.6228 19.8598 23.922C18.9299 24.2697 17.9434 24.4557 16.9488 24.48C15.6712 24.5366 15.2588 24.5527 12 24.5527C8.74124 24.5527 8.32884 24.5366 7.05121 24.48ZM7.14825 2.78454C6.38814 2.79263 5.63612 2.93009 4.91644 3.19694C4.39892 3.39101 3.92183 3.69829 3.53369 4.09451C3.13747 4.48265 2.83019 4.95166 2.63612 5.47726C2.36927 6.18885 2.23181 6.94896 2.22372 7.70907C2.16712 8.97861 2.15094 9.35058 2.15094 12.5608C2.15094 15.7711 2.16712 16.143 2.22372 17.4126C2.23181 18.1727 2.36927 18.9247 2.63612 19.6444C2.83019 20.1619 3.13747 20.639 3.53369 21.0271C3.92183 21.4234 4.39084 21.7306 4.91644 21.9247C5.62803 22.1915 6.38814 22.329 7.14825 22.3371C8.41779 22.3937 8.78976 22.4099 12 22.4099C15.2102 22.4099 15.5822 22.4018 16.8518 22.3371C17.6119 22.329 18.3639 22.1915 19.0836 21.9247C19.6092 21.7306 20.0782 21.4234 20.4663 21.0271C20.8625 20.639 21.1698 20.17 21.3639 19.6444C21.6307 18.9328 21.7682 18.1727 21.7763 17.4126C21.8329 16.143 21.8491 15.7711 21.8491 12.5608C21.8491 9.35058 21.841 8.97861 21.7763 7.70907C21.7682 6.94896 21.6307 6.19694 21.3639 5.47726C21.1698 4.95974 20.8625 4.48265 20.4663 4.09451C20.0782 3.69829 19.6092 3.39101 19.0836 3.19694C18.372 2.93009 17.6119 2.79263 16.8518 2.78454C15.5903 2.72794 15.2102 2.71176 12 2.71176C8.78976 2.71176 8.41779 2.71985 7.14825 2.78454ZM6.04852 12.5527C6.04852 9.26163 8.71698 6.60125 12 6.59317C15.2911 6.59317 17.9515 9.26163 17.9515 12.5446C17.9515 15.8358 15.283 18.4961 12 18.5042C8.7089 18.5123 6.04852 15.8438 6.04852 12.5527ZM8.13477 12.5527C8.13477 14.6875 9.86523 16.418 12 16.418C14.1348 16.418 15.8652 14.6875 15.8652 12.5527C15.8652 10.418 14.1348 8.68751 12 8.68751C9.86523 8.68751 8.13477 10.418 8.13477 12.5527ZM16.8841 6.18077C16.8841 5.35597 17.5553 4.6929 18.3801 4.6929C19.2049 4.6929 19.876 5.36406 19.876 6.18077C19.876 7.00557 19.2129 7.66864 18.3881 7.66864C17.5553 7.66864 16.8841 6.99748 16.8841 6.18077C16.8841 6.17268 16.8841 6.17268 16.8841 6.18077Z" fill="white"/>
</svg>
