<svg width="25" height="24" viewBox="0 0 25 24" fill="none" xmlns="http://www.w3.org/2000/svg">
<path d="M7.55121 23.9272C6.5566 23.9111 5.57008 23.717 4.64016 23.3693C3.83962 23.0701 3.11186 22.593 2.51348 21.9865C1.89892 21.3881 1.42992 20.6604 1.13073 19.8598C0.783019 18.9299 0.597036 17.9434 0.572777 16.9488C0.516173 15.6712 0.5 15.2588 0.5 12C0.5 8.74124 0.516173 8.32884 0.572777 7.05121C0.58895 6.0566 0.783019 5.07008 1.13073 4.14016C1.42992 3.33962 1.90701 2.61186 2.51348 2.01348C3.11186 1.40701 3.83962 0.929919 4.64016 0.630728C5.57008 0.283019 6.5566 0.0889489 7.55121 0.0727764C8.82884 0.0161726 9.24124 0 12.5 0C15.7588 0 16.1712 0.0161726 17.4488 0.0727764C18.4434 0.0889489 19.4299 0.283019 20.3598 0.630728C21.1604 0.929919 21.8881 1.40701 22.4865 2.01348C23.1011 2.61186 23.5701 3.33962 23.8693 4.14016C24.217 5.07008 24.4111 6.0566 24.4272 7.05121C24.4838 8.32884 24.5 8.74124 24.5 12C24.5 15.2588 24.4838 15.6712 24.4272 16.9488C24.403 17.9434 24.217 18.9299 23.8693 19.8598C23.5701 20.6604 23.093 21.3881 22.4865 21.9865C21.8881 22.6011 21.1604 23.0701 20.3598 23.3693C19.4299 23.717 18.4434 23.903 17.4488 23.9272C16.1712 23.9838 15.7588 24 12.5 24C9.24124 24 8.82884 23.9838 7.55121 23.9272ZM7.64825 2.23181C6.88814 2.23989 6.13612 2.37736 5.41644 2.6442C4.89892 2.83827 4.42183 3.14555 4.03369 3.54178C3.63747 3.92992 3.33019 4.39892 3.13612 4.92453C2.86927 5.63612 2.73181 6.39623 2.72372 7.15633C2.66712 8.42588 2.65094 8.79784 2.65094 12.0081C2.65094 15.2183 2.66712 15.5903 2.72372 16.8598C2.73181 17.6199 2.86927 18.372 3.13612 19.0916C3.33019 19.6092 3.63747 20.0863 4.03369 20.4744C4.42183 20.8706 4.89084 21.1779 5.41644 21.372C6.12803 21.6388 6.88814 21.7763 7.64825 21.7844C8.91779 21.841 9.28976 21.8571 12.5 21.8571C15.7102 21.8571 16.0822 21.8491 17.3518 21.7844C18.1119 21.7763 18.8639 21.6388 19.5836 21.372C20.1092 21.1779 20.5782 20.8706 20.9663 20.4744C21.3625 20.0863 21.6698 19.6173 21.8639 19.0916C22.1307 18.3801 22.2682 17.6199 22.2763 16.8598C22.3329 15.5903 22.3491 15.2183 22.3491 12.0081C22.3491 8.79784 22.341 8.42588 22.2763 7.15633C22.2682 6.39623 22.1307 5.6442 21.8639 4.92453C21.6698 4.40701 21.3625 3.92992 20.9663 3.54178C20.5782 3.14555 20.1092 2.83827 19.5836 2.6442C18.872 2.37736 18.1119 2.23989 17.3518 2.23181C16.0903 2.1752 15.7102 2.15903 12.5 2.15903C9.28976 2.15903 8.91779 2.16712 7.64825 2.23181ZM6.54852 12C6.54852 8.70889 9.21698 6.04852 12.5 6.04043C15.7911 6.04043 18.4515 8.7089 18.4515 11.9919C18.4515 15.283 15.783 17.9434 12.5 17.9515C9.2089 17.9596 6.54852 15.2911 6.54852 12ZM8.63477 12C8.63477 14.1348 10.3652 15.8652 12.5 15.8652C14.6348 15.8652 16.3652 14.1348 16.3652 12C16.3652 9.86523 14.6348 8.13477 12.5 8.13477C10.3652 8.13477 8.63477 9.86523 8.63477 12ZM17.3841 5.62803C17.3841 4.80324 18.0553 4.14016 18.8801 4.14016C19.7049 4.14016 20.376 4.81132 20.376 5.62803C20.376 6.45283 19.7129 7.1159 18.8881 7.1159C18.0553 7.1159 17.3841 6.44474 17.3841 5.62803C17.3841 5.61995 17.3841 5.61995 17.3841 5.62803Z" fill="black"/>
</svg>
